<?xml version="1.0" encoding="utf-8"?>
<!-- Generator: Adobe Illustrator 16.0.0, SVG Export Plug-In . SVG Version: 6.00 Build 0)  -->
<!DOCTYPE svg PUBLIC "-//W3C//DTD SVG 1.1//EN" "http://www.w3.org/Graphics/SVG/1.1/DTD/svg11.dtd">
<svg version="1.1" id="Layer_1" xmlns="http://www.w3.org/2000/svg" xmlns:xlink="http://www.w3.org/1999/xlink" x="0px" y="0px"
	 width="130px" height="130px" viewBox="0 0 130 130" enable-background="new 0 0 130 130" xml:space="preserve">
<g>
	<g id="Base_icon_copy_4">
		<path fill="#EB5350" d="M125.8,1H4.2C2.433,1,1,2.433,1,4.2v121.6c0,1.768,1.433,3.2,3.2,3.2h121.6c1.768,0,3.2-1.433,3.2-3.2V4.2
			C129,2.433,127.567,1,125.8,1z"/>
	</g>
	<g id="Shape_11_copy">
		<path fill="#FFFFFF" d="M45.015,75.737h3.428v17.04h3.312v-17.04h3.428v-2.896H45.015V75.737z M61.931,89.24
			c-0.276,0.317-0.58,0.582-0.913,0.785c-0.33,0.209-0.607,0.312-0.819,0.312c-0.276,0-0.476-0.078-0.603-0.237
			c-0.12-0.152-0.183-0.403-0.183-0.751V78.065h-2.938v12.3c0,0.878,0.175,1.529,0.516,1.972c0.345,0.438,0.854,0.655,1.537,0.655
			c0.551,0,1.12-0.154,1.703-0.47c0.593-0.311,1.152-0.763,1.7-1.362v1.617h2.939V78.065h-2.939V89.24z M72.668,77.89
			c-0.456,0-0.91,0.115-1.358,0.348c-0.441,0.23-0.862,0.577-1.26,1.021v-6.416h-2.972v19.936h2.972v-1.128
			c0.386,0.45,0.808,0.781,1.26,0.995c0.445,0.216,0.956,0.318,1.536,0.318c0.871,0,1.537-0.275,1.999-0.83
			c0.461-0.556,0.69-1.355,0.69-2.397v-8.162c0-1.203-0.245-2.12-0.738-2.746C74.308,78.203,73.598,77.89,72.668,77.89z
			 M72.505,89.333c0,0.473-0.087,0.807-0.255,1.013c-0.17,0.209-0.433,0.312-0.793,0.312c-0.247,0-0.481-0.053-0.707-0.159
			c-0.228-0.103-0.462-0.28-0.7-0.518v-9.163c0.203-0.205,0.402-0.355,0.608-0.449c0.202-0.099,0.412-0.144,0.624-0.144
			c0.393,0,0.698,0.125,0.913,0.381c0.21,0.257,0.31,0.635,0.31,1.134V89.333z M81.542,77.7c-1.314,0-2.384,0.402-3.219,1.204
			c-0.83,0.804-1.25,1.848-1.25,3.118v6.607c0,1.417,0.385,2.53,1.14,3.337c0.755,0.808,1.792,1.211,3.11,1.211
			c1.465,0,2.566-0.378,3.297-1.138c0.742-0.765,1.107-1.902,1.107-3.41v-0.755h-3.022v0.672c0,0.863-0.103,1.421-0.293,1.674
			c-0.195,0.257-0.532,0.384-1.021,0.384c-0.469,0-0.803-0.147-0.996-0.447c-0.196-0.3-0.287-0.837-0.287-1.61v-2.774h5.62v-3.75
			c0-1.393-0.357-2.462-1.08-3.203C83.925,78.073,82.888,77.7,81.542,77.7z M82.705,83.484h-2.598v-1.486
			c0-0.613,0.096-1.059,0.303-1.318c0.205-0.272,0.54-0.402,1.008-0.402c0.446,0,0.779,0.13,0.978,0.402
			c0.202,0.26,0.31,0.705,0.31,1.318V83.484z M65.655,49.711c-0.405,0-0.73,0.107-0.985,0.325c-0.25,0.218-0.377,0.505-0.377,0.859
			v8.825c0,0.445,0.119,0.787,0.353,1.03c0.234,0.245,0.572,0.366,1.01,0.366c0.449,0,0.803-0.125,1.069-0.372
			c0.266-0.25,0.396-0.591,0.396-1.024v-8.825c0-0.354-0.135-0.641-0.403-0.859C66.445,49.819,66.093,49.711,65.655,49.711z
			 M93.28,37.521H37.462c-4.06,0-7.377,3.32-7.377,7.378V60.58c0,4.056,3.317,7.375,7.377,7.375H93.28
			c4.06,0,7.377-3.319,7.377-7.375V44.899C100.657,40.841,97.34,37.521,93.28,37.521z M56.28,54.402v9.112h-3.726v-8.701
			l-4.437-13.261h3.754l2.418,8.777h0.235l2.303-8.777h3.79L56.28,54.402z M70.493,59.479c0,1.386-0.429,2.47-1.283,3.261
			c-0.862,0.789-2.042,1.183-3.547,1.183c-1.445,0-2.605-0.408-3.476-1.221c-0.865-0.814-1.303-1.911-1.303-3.287v-8.397
			c0-1.256,0.445-2.256,1.338-2.999c0.89-0.742,2.09-1.115,3.592-1.115c1.37,0,2.493,0.393,3.371,1.176
			c0.87,0.784,1.308,1.793,1.308,3.029V59.479z M82.623,63.515h-3.312v-1.791c-0.604,0.659-1.238,1.164-1.902,1.508
			c-0.658,0.343-1.299,0.516-1.918,0.516c-0.771,0-1.343-0.242-1.732-0.725c-0.385-0.482-0.58-1.205-0.58-2.171v-13.54h3.307v12.42
			c0,0.386,0.075,0.662,0.213,0.832c0.136,0.173,0.362,0.261,0.671,0.261c0.242,0,0.554-0.115,0.927-0.341
			c0.368-0.229,0.71-0.519,1.016-0.875V47.312h3.312V63.515z"/>
	</g>
</g>
</svg>
